{"title":"Dragon Ball Z Resurrection 'F (Full Movie in English)","uid":12210002,"size":402307167,"categoryP":"video","categoryS":"movies","magnet":"?xt=urn:btih:1cbb369554897bb3af2866cd503cc4c9518f3acd&amp;dn=Dragon+Ball+Z+Resurrection+%27F+%28Full+Movie+in+English%29&amp;tr=udp%3A%2F%2Ftracker.openbittorrent.com%3A80&amp;tr=udp%3A%2F%2Fopen.demonii.com%3A1337&amp;tr=udp%3A%2F%2Ftracker.coppersurfer.tk%3A6969&amp;tr=udp%3A%2F%2Fexodus.desync.com%3A6969","seeders":2,"leechers":0,"uploader":"Nintendozelda","files":1,"time":1439065867,"description":"One peaceful day on Earth, two remnants of Frieza's army named Sorbet and Tagoma arrive searching for the Dragon Balls with the aim of reviving Frieza. They succeed, and Frieza subsequently seeks revenge on the Saiyans.\n\nDirector: Tadayoshi Yamamuro\nWriters: Akira Toriyama (manga), Akira Toriyama (screenplay)\n\n\nVideo\nID                                       : 1\nFormat                                   : AVC\nFormat/Info                              : Advanced Video Codec\nFormat profile                           : &lt;a class=&quot;__cf_email__&quot; href=&quot;/cdn-cgi/l/email-protection&quot; data-cfemail=&quot;9cd4f5fbf4dcd0afb2ac&quot;&gt;[email&amp;#160;protected]&lt;/a&gt;&lt;script data-cfhash='f9e31' type=&quot;text/javascript&quot;&gt;\n/* &lt;![CDATA[ */!function(){try{var t=&quot;currentScript&quot;in document?document.currentScript:function(){for(var t=document.getElementsByTagName(&quot;script&quot;),e=t.length;e--;)if(t[e].getAttribute(&quot;data-cfhash&quot;))return t[e]}();if(t&amp;&amp;t.previousSibling){var e,r,n,i,c=t.previousSibling,a=c.getAttribute(&quot;data-cfemail&quot;);if(a){for(e=&quot;&quot;,r=parseInt(a.substr(0,2),16),n=2;a.length-n;n+=2)i=parseInt(a.substr(n,2),16)^r,e+=String.fromCharCode(i);e=document.createTextNode(e),c.parentNode.replaceChild(e,c)}t.parentNode.removeChild(t);}}catch(u){}}()/* ]]&gt; */&lt;/script&gt;\nFormat settings, CABAC                   : Yes\nFormat settings, ReFrames                : 4 frames\nMuxing mode                              : Header stripping\nCodec ID                                 : V_MPEG4/ISO/AVC\nDuration                                 : 1h 29mn\nBit rate                                 : 684 Kbps\nWidth                                    : 720 pixels\nHeight                                   : 400 pixels\nDisplay aspect ratio                     : 16:9\nFrame rate mode                          : Constant\nFrame rate                               : 23.976 fps\nColor space                              : YUV\nChroma subsampling                       : 4:2:0\nBit depth                                : 8 bits\nScan type                                : Progressive\nBits/(Pixel*Frame)                       : 0.099\nStream size                              : 437 MiB (83%)\n\nAudio\nID                                       : 2\nFormat                                   : MPEG Audio\nFormat version                           : Version 2\nFormat profile                           : Layer 3\nMuxing mode                              : Header stripping\nCodec ID                                 : A_MPEG/L3\nCodec ID/Hint                            : MP3\nDuration                                 : 1h 29mn\nBit rate mode                            : Constant\nBit rate                                 : 128 Kbps\nChannel(s)                               : 1 channel\nSampling rate                            : 16.0 KHz\nCompression mode                         : Lossy\nStream size                              : 81.6 MiB (15%)\nWriting library                          : LAME3.82\nDefault                                  : Yes\nForced","torrent":{"xt":"urn:btih:1cbb369554897bb3af2866cd503cc4c9518f3acd","amp;dn":"Dragon+Ball+Z+Resurrection+%27F+%28Full+Movie+in+English%29","amp;tr":["udp%3A%2F%2Ftracker.openbittorrent.com%3A80","udp%3A%2F%2Fopen.demonii.com%3A1337","udp%3A%2F%2Ftracker.coppersurfer.tk%3A6969","udp%3A%2F%2Fexodus.desync.com%3A6969"],"infoHash":"1cbb369554897bb3af2866cd503cc4c9518f3acd","infoHashBuffer":{"type":"Buffer","data":[28,187,54,149,84,137,123,179,175,40,102,205,80,60,196,201,81,143,58,205]},"announce":[],"urlList":[]}}